{"title":"Real Time with Bill Maher - 2013-11-15","uid":9200622,"size":284862652,"categoryP":"video","categoryS":"tv_shows","magnet":"?xt=urn:btih:20123c0195787d02a65063976a06bf24b0a20a5a&amp;dn=Real+Time+with+Bill+Maher+-+2013-11-15&amp;tr=udp%3A%2F%2Ftracker.openbittorrent.com%3A80&amp;tr=udp%3A%2F%2Fopen.demonii.com%3A1337&amp;tr=udp%3A%2F%2Ftracker.coppersurfer.tk%3A6969&amp;tr=udp%3A%2F%2Fexodus.desync.com%3A6969","seeders":1,"leechers":0,"uploader":"ajoiner85","files":1,"time":1384587818,"description":"Checked sync, seems OK\n\nSound is AAC Stereo, not AC3 5.1 Surround\n\nHopefully nothing else crops up to cause people problems\n\nEnjoy!!\n\n\nFile Specs\n\nGeneral\nComplete name                    : rtwbm-2013-11-15.mp4\nFormat                           : MPEG-4\nFormat profile                   : Base Media / Version 2\nCodec ID                         : mp42\nFile size                        : 272 MiB\nDuration                         : 58mn 32s\nOverall bit rate mode            : Variable\nOverall bit rate                 : 649 Kbps\nEncoded date                     : UTC 2013-11-16 06:13:22\nTagged date                      : UTC 2013-11-16 06:23:16\nWriting application              : HandBrake 0.9.9 2013052900\n\nVideo\nID                               : 1\nFormat                           : AVC\nFormat/Info                      : Advanced Video Codec\nFormat profile                   : &lt;a class=&quot;__cf_email__&quot; href=&quot;/cdn-cgi/l/email-protection&quot; data-cfemail=&quot;723f131b1c323e465c42&quot;&gt;[email&amp;#160;protected]&lt;/a&gt;&lt;script cf-hash='f9e31' type=&quot;text/javascript&quot;&gt;\n/* &lt;![CDATA[ */!function(){try{var t=&quot;currentScript&quot;in document?document.currentScript:function(){for(var t=document.getElementsByTagName(&quot;script&quot;),e=t.length;e--;)if(t[e].getAttribute(&quot;cf-hash&quot;))return t[e]}();if(t&amp;&amp;t.previousSibling){var e,r,n,i,c=t.previousSibling,a=c.getAttribute(&quot;data-cfemail&quot;);if(a){for(e=&quot;&quot;,r=parseInt(a.substr(0,2),16),n=2;a.length-n;n+=2)i=parseInt(a.substr(n,2),16)^r,e+=String.fromCharCode(i);e=document.createTextNode(e),c.parentNode.replaceChild(e,c)}}}catch(u){}}();/* ]]&gt; */&lt;/script&gt;\nFormat settings, CABAC           : Yes\nFormat settings, ReFrames        : 4 frames\nCodec ID                         : avc1\nCodec ID/Info                    : Advanced Video Coding\nDuration                         : 58mn 32s\nBit rate mode                    : Variable\nBit rate                         : 452 Kbps\nWidth                            : 720 pixels\nHeight                           : 380 pixels\nDisplay aspect ratio             : 1.887\nOriginal display aspect ratio    : 1.888\nFrame rate mode                  : Variable\nFrame rate                       : 29.970 fps\nMinimum frame rate               : 3.847 fps\nMaximum frame rate               : 29.990 fps\nColor space                      : YUV\nChroma subsampling               : 4:2:0\nBit depth                        : 8 bits\nScan type                        : Progressive\nBits/(Pixel*Frame)               : 0.055\nStream size                      : 189 MiB (70%)\nWriting library                  : x264 core 130 r2273 b3065e6\nEncoding settings                : cabac=1 // deblock=1:0:0 / analyse=0x1:0x111 / me=hex / subme=2 / psy=1 / psy_rd=1.00:0.00 // me_range=16 / chroma_me=1 / trellis=0 / 8x8dct=0 / cqm=0 / deadzone=21,11 / fast_pskip=1 / chroma_qp_offset=0 / threads=12 / lookahead_threads=2 / sliced_threads=0 / nr=0 / decimate=1 / interlaced=0 / bluray_compat=0 / constrained_intra=0 / bframes=3 / b_pyramid=2 / b_adapt=1 / b_bias=0 / direct=1 / weightb=1 / open_gop=0 / weightp=1 / keyint=300 / keyint_min=30 / scenecut=40 / intra_refresh=0 / rc_lookahead=10 / rc=crf / mbtree=1 / crf=20.0 / qcomp=0.60 / qpmin=0 / qpmax=69 / qpstep=4 / vbv_maxrate=20000 / vbv_bufsize=25000 / crf_max=0.0 / nal_hrd=none / ip_ratio=1.40 / aq=1:1.00\nEncoded date                     : UTC 2013-11-16 06:13:22\nTagged date                      : UTC 2013-11-16 06:23:16\nColor primaries                  : BT.709-5, BT.1361, IEC 61966-2-4, SMPTE RP177\nTransfer characteristics         : BT.709-5, BT.1361\nMatrix coefficients              : BT.709-5, BT.1361, IEC 61966-2-4 709, SMPTE RP177\n\nAudio\nID                               : 2\nFormat                           : AAC\nFormat/Info                      : Advanced Audio Codec\nFormat profile                   : LC\nCodec ID                         : 40\nDuration                         : 58mn 31s\nBit rate mode                    : Variable\nBit rate                         : 192 Kbps\nMaximum bit rate                 : 329 Kbps\nChannel(s)                       : 2 channels\nChannel positions                : Front: L R\nSampling rate                    : 48.0 KHz\nCompression mode                 : Lossy\nStream size                      : 80.4 MiB (30%)\nLanguage                         : English\nEncoded date                     : UTC 2013-11-16 06:13:22\nTagged date                      : UTC 2013-11-16 06:23:15\n","torrent":{"xt":"urn:btih:20123c0195787d02a65063976a06bf24b0a20a5a","amp;dn":"Real+Time+with+Bill+Maher+-+2013-11-15","amp;tr":["udp%3A%2F%2Ftracker.openbittorrent.com%3A80","udp%3A%2F%2Fopen.demonii.com%3A1337","udp%3A%2F%2Ftracker.coppersurfer.tk%3A6969","udp%3A%2F%2Fexodus.desync.com%3A6969"],"infoHash":"20123c0195787d02a65063976a06bf24b0a20a5a","infoHashBuffer":{"type":"Buffer","data":[32,18,60,1,149,120,125,2,166,80,99,151,106,6,191,36,176,162,10,90]},"announce":[],"urlList":[]}}